<svg width="56" height="56" viewBox="0 0 56 56" fill="none" xmlns="http://www.w3.org/2000/svg">
<rect width="56" height="56" fill="white"/>
<mask id="mask0_8_27" style="mask-type:luminance" maskUnits="userSpaceOnUse" x="1" y="1" width="55" height="55">
<path d="M55.7528 1.66695H1.52393V55.8957H55.7528V1.66695Z" fill="white"/>
</mask>
<g mask="url(#mask0_8_27)">
<path d="M12.8218 49.1682C12.8218 43.1706 16.6569 38.0617 21.869 37.1166L22.3386 37.0315C26.5121 36.2746 30.7649 36.2746 34.9384 37.0315L35.408 37.1166C40.62 38.0617 44.4552 43.1706 44.4552 49.1682C44.4552 51.7606 42.6058 53.8621 40.3246 53.8621H16.9525C14.6712 53.8621 12.8218 51.7606 12.8218 49.1682Z" stroke="black" stroke-width="1.99727"/>
<path d="M37.865 18.9101C37.865 24.315 33.7342 28.6966 28.6385 28.6966C23.5429 28.6966 19.4121 24.315 19.4121 18.9101C19.4121 13.505 23.5429 9.1234 28.6385 9.1234C33.7342 9.1234 37.865 13.505 37.865 18.9101Z" stroke="black" stroke-width="1.99727"/>
</g>
</svg>
