<svg width="56" height="56" viewBox="0 0 56 56" fill="none" xmlns="http://www.w3.org/2000/svg">
<mask id="mask0_2_102" style="mask-type:luminance" maskUnits="userSpaceOnUse" x="1" y="1" width="55" height="55">
<path d="M55.7529 1.66699H1.52399V55.8957H55.7529V1.66699Z" fill="white"/>
</mask>
<g mask="url(#mask0_2_102)">
<path d="M12.822 49.1683C12.822 43.1707 16.6571 38.0618 21.8692 37.1167L22.3388 37.0316C26.5123 36.2746 30.7651 36.2746 34.9386 37.0316L35.4081 37.1167C40.6202 38.0618 44.4554 43.1707 44.4554 49.1683C44.4554 51.7607 42.606 53.8622 40.3248 53.8622H16.9527C14.6713 53.8622 12.822 51.7607 12.822 49.1683Z" stroke="white" stroke-width="1.99727"/>
<path d="M37.8652 18.9101C37.8652 24.315 33.7344 28.6967 28.6388 28.6967C23.5431 28.6967 19.4124 24.315 19.4124 18.9101C19.4124 13.505 23.5431 9.12341 28.6388 9.12341C33.7344 9.12341 37.8652 13.505 37.8652 18.9101Z" stroke="white" stroke-width="1.99727"/>
</g>
</svg>
