<svg width="56" height="56" viewBox="0 0 56 56" fill="none" xmlns="http://www.w3.org/2000/svg">
<path d="M47.5411 50.4965C48.2336 51.189 49.3052 51.1329 49.9348 50.3711C50.5644 49.6093 50.5135 48.4303 49.8209 47.7378L47.5411 50.4965ZM10.3637 32.34C9.48411 28.5904 9.48411 24.6906 10.3637 20.941L7.08185 20.0095C6.05898 24.3701 6.05898 28.9109 7.08185 33.2715L10.3637 32.34ZM42.0449 20.941C42.9245 24.6906 42.9245 28.5904 42.0449 32.34L45.3267 33.2715C46.3496 28.9109 46.3496 24.3701 45.3267 20.0095L42.0449 20.941ZM32.016 42.2989C28.1939 43.1954 24.2147 43.1954 20.3926 42.2989L19.6856 45.9452C23.9737 46.951 28.4349 46.951 32.723 45.9452L32.016 42.2989ZM20.3926 10.9821C24.2147 10.0855 28.1939 10.0855 32.016 10.9821L32.723 7.33583C28.4349 6.32997 23.9737 6.32997 19.6856 7.33583L20.3926 10.9821ZM20.3926 42.2989C15.3359 41.1128 11.5031 37.1976 10.3637 32.34L7.08185 33.2715C8.57661 39.6439 13.5123 44.497 19.6856 45.9452L20.3926 42.2989ZM32.723 45.9452C38.8964 44.497 43.832 39.6439 45.3267 33.2715L42.0449 32.34C40.9056 37.1976 37.0726 41.1128 32.016 42.2989L32.723 45.9452ZM32.016 10.9821C37.0726 12.1682 40.9056 16.0834 42.0449 20.941L45.3267 20.0095C43.832 13.6372 38.8964 8.78391 32.723 7.33583L32.016 10.9821ZM19.6856 7.33583C13.5123 8.78391 8.57661 13.6372 7.08185 20.0095L10.3637 20.941C11.5031 16.0834 15.3359 12.1682 20.3926 10.9821L19.6856 7.33583ZM39.2602 42.2156L47.5411 50.4965L49.8209 47.7378L41.5401 39.457L39.2602 42.2156Z" fill="black"/>
</svg>
