<svg width="56" height="56" viewBox="0 0 56 56" fill="none" xmlns="http://www.w3.org/2000/svg">
<path d="M47.5409 50.4965C48.2335 51.189 49.3051 51.1328 49.9347 50.371C50.5643 49.6093 50.5134 48.4303 49.8208 47.7377L47.5409 50.4965ZM10.3635 32.34C9.48399 28.5904 9.48399 24.6906 10.3635 20.941L7.08172 20.0095C6.05886 24.3701 6.05886 28.9109 7.08172 33.2714L10.3635 32.34ZM42.0448 20.941C42.9243 24.6906 42.9243 28.5904 42.0448 32.34L45.3266 33.2714C46.3495 28.9109 46.3495 24.3701 45.3266 20.0095L42.0448 20.941ZM32.0159 42.2988C28.1938 43.1954 24.2146 43.1954 20.3925 42.2988L19.6855 45.9452C23.9736 46.9509 28.4348 46.9509 32.7228 45.9452L32.0159 42.2988ZM20.3925 10.9821C24.2146 10.0855 28.1938 10.0855 32.0159 10.9821L32.7228 7.33581C28.4348 6.32996 23.9736 6.32996 19.6855 7.33581L20.3925 10.9821ZM20.3925 42.2988C15.3358 41.1128 11.503 37.1976 10.3635 32.34L7.08172 33.2714C8.57648 39.6439 13.5122 44.497 19.6855 45.9452L20.3925 42.2988ZM32.7228 45.9452C38.8962 44.497 43.8319 39.6439 45.3266 33.2714L42.0448 32.34C40.9054 37.1976 37.0725 41.1128 32.0159 42.2988L32.7228 45.9452ZM32.0159 10.9821C37.0725 12.1682 40.9054 16.0834 42.0448 20.941L45.3266 20.0095C43.8319 13.6372 38.8962 8.7839 32.7228 7.33581L32.0159 10.9821ZM19.6855 7.33581C13.5122 8.7839 8.57648 13.6372 7.08172 20.0095L10.3635 20.941C11.503 16.0834 15.3358 12.1682 20.3925 10.9821L19.6855 7.33581ZM39.2601 42.2156L47.5409 50.4965L49.8208 47.7377L41.5399 39.457L39.2601 42.2156Z" fill="white"/>
</svg>
